#!OML:ASF H:\Terrain\Patient Classification 1\Walking\steve\steve.ASF
:FULLY-SPECIFIED
:DEGREES
169
root 7.69066 16.0313 -2.91657 5.12066 -10.8428 3.16228
lowerback -0.186458 4.6685 -3.25654
upperback -2.33101 6.14438 -2.39824
thorax -2.3711 3.1064 -0.772259
lowerneck -12.1284 -0.801307 -1.82313
upperneck 15.4079 -0.936225 1.1427
head 6.70988 -0.458754 0.580419
rclavicle -3.38555e-015 -6.75868e-015
rhumerus -24.5201 0.904807 -86.4823
rradius 53.2479
rwrist -21.8143
rhand -20.6026 -38.3184
rfingers 7.12502
rthumb 5.75806 -68.2202
lclavicle -3.38555e-015 -6.75868e-015
lhumerus -64.9937 35.4312 38.3423
lradius 9.75968
lwrist -36.9118
lhand -16.1433 -7.13819
lfingers 7.12502
lthumb 10.0619 22.6013
rfemur -10.4796 5.39823 15.9476
rtibia 68.5693
rfoot 12.9551 -3.05182
rtoes -9.47809
lfemur -30.3206 3.67059 -26.5346
ltibia 34.5721
lfoot -9.42332 -0.0745925
ltoes -0.760822
170
root 7.69625 16.0795 -2.70488 5.00384 -10.6306 2.93194
lowerback 0.126863 4.50792 -3.05504
upperback -2.43828 5.91724 -2.26337
thorax -2.64788 2.99271 -0.773242
lowerneck -11.7212 -0.746044 -1.64611
upperneck 15.4824 -0.841434 0.791803
head 6.65935 -0.433933 0.448448
rclavicle 5.79147e-014 -3.57812e-015
rhumerus -26.1062 0.907486 -86.9145
rradius 52.6816
rwrist -21.7129
rhand -22.7477 -42.6549
rfingers 7.12502
rthumb 3.68676 -72.6027
lclavicle 5.79147e-014 -3.57812e-015
lhumerus -62.7181 35.1885 41.3216
lradius 9.84223
lwrist -35.241
lhand -15.0693 -6.8502
lfingers 7.12502
lthumb 11.098 22.8364
rfemur -12.2176 5.1234 16.3964
rtibia 70.127
rfoot 10.7904 -2.12764
rtoes -12.9811
lfemur -28.9992 3.70257 -26.4679
ltibia 34.0574
lfoot -9.97689 -0.0297946
ltoes -5.37272
171
root 7.70058 16.1188 -2.49589 5.02168 -10.3729 2.61639
lowerback 0.279234 4.29399 -2.8718
upperback -2.52526 5.63137 -2.00683
thorax -2.8274 2.85063 -0.621257
lowerneck -12.0598 -0.652816 -1.4764
upperneck 16.0343 -0.673968 0.40343
head 6.89198 -0.37753 0.310181
rclavicle -3.63248e-014 1.98785e-014
rhumerus -27.387 0.549628 -87.2528
rradius 51.768
rwrist -20.8134
rhand -21.2827 -42.8447
rfingers 7.12502
rthumb 5.1014 -72.7633
lclavicle -3.63248e-014 1.98785e-014
lhumerus -60.5256 35.0193 44.2994
lradius 10.2403
lwrist -33.3566
lhand -13.7052 -6.51292
lfingers 7.12502
lthumb 12.4133 23.0985
rfemur -13.8633 5.04374 16.9204
rtibia 71.5658
rfoot 8.22919 -2.18604
rtoes -10.2999
lfemur -27.8944 3.76171 -26.2629
ltibia 33.5498
lfoot -10.4317 -0.417345
ltoes -3.90695
172
root 7.7071 16.1609 -2.28368 5.0918 -10.0541 2.61425
lowerback 0.10614 4.07429 -2.78275
upperback -2.41908 5.3512 -1.96299
thorax -2.61242 2.70783 -0.596392
lowerneck -12.3153 -0.566776 -1.39099
upperneck 16.1861 -0.534075 0.208709
head 6.98363 -0.322576 0.245846
rclavicle -2.42983e-014 2.92213e-014
rhumerus -28.2212 -0.0695848 -87.669
rradius 50.6324
rwrist -20.2797
rhand -20.2159 -41.5119
rfingers 7.12502
rthumb 6.13135 -71.4032
lclavicle -2.42983e-014 2.92213e-014
lhumerus -57.0785 34.0741 48.9354
lradius 10.6965
lwrist -30.3875
lhand -14.2861 -6.48837
lfingers 7.12502
lthumb 11.8532 23.1561
rfemur -16.0601 4.70613 17.1509
rtibia 72.5206
rfoot 6.87194 -1.75325
rtoes -16.3701
lfemur -26.8269 3.58359 -26.3848
ltibia 33.0154
lfoot -10.7614 -0.792115
ltoes -0.5818
173
root 7.71018 16.1975 -2.07443 5.1202 -9.6786 2.82685
lowerback -0.152863 3.89424 -2.82393
upperback -2.32778 5.12183 -2.07243
thorax -2.36355 2.59115 -0.65405
lowerneck -11.954 -0.485505 -1.23006
upperneck 15.9625 -0.433804 0.0603995
head 6.84669 -0.276981 0.181792
rclavicle 1.12189e-014 5.56597e-015
rhumerus -29.2005 -0.245361 -87.982
rradius 49.2887
rwrist -21.2318
rhand -17.4369 -47.5767
rfingers 7.12502
rthumb 8.81375 -77.3726
lclavicle 1.12189e-014 5.56597e-015
lhumerus -53.7697 32.6516 53.2986
lradius 11.1272
lwrist -27.7064
lhand -15.8893 -7.57162
lfingers 7.12502
lthumb 10.3069 22.1558
rfemur -17.9144 4.31781 17.0933
rtibia 73.3799
rfoot 5.51243 -1.48855
rtoes -16.1391
lfemur -25.7891 3.15631 -26.7216
ltibia 32.5858
lfoot -11.2355 -0.852746
ltoes -1.07574
174
root 7.71194 16.2195 -1.8662 5.11075 -9.24187 2.80841
lowerback -0.215454 3.71922 -2.73283
upperback -2.34602 4.89218 -2.04221
thorax -2.33929 2.47511 -0.664008
lowerneck -11.5952 -0.468349 -1.37519
upperneck 15.9443 -0.411703 0.193521
head 6.77863 -0.263619 0.2513
rclavicle -2.25993e-014 -3.77691e-015
rhumerus -30.3827 -0.479372 -88.0651
rradius 47.7316
rwrist -21.8616
rhand -17.5992 -46.2407
rfingers 7.12502
rthumb 8.65709 -76.0432
lclavicle -2.25993e-014 -3.77691e-015
lhumerus -50.7987 30.7763 57.5798
lradius 11.7158
lwrist -24.4904
lhand -15.9011 -7.26086
lfingers 7.12502
lthumb 10.2956 22.4671
rfemur -19.5041 3.86181 17.3864
rtibia 74.0614
rfoot 4.12642 -0.862955
rtoes -19.7088
lfemur -24.789 2.7421 -26.764
ltibia 32.2656
lfoot -11.8391 -1.17893
ltoes 0.201466
175
root 7.71274 16.2375 -1.66526 5.22641 -8.83926 2.15337
lowerback -0.103389 3.54197 -2.15341
upperback -2.40566 4.66355 -1.73415
thorax -2.43925 2.35379 -0.67392
lowerneck -11.6054 -0.498785 -1.8036
upperneck 16.1485 -0.430989 0.525791
head 6.84807 -0.270993 0.427222
rclavicle -1.44958e-014 4.96962e-015
rhumerus -31.2665 -1.35937 -87.946
rradius 45.7785
rwrist -20.916
rhand -18.0646 -43.0699
rfingers 7.12502
rthumb 8.20799 -72.8905
lclavicle -1.44958e-014 4.96962e-015
lhumerus -47.9143 28.9621 61.55
lradius 12.143
lwrist -21.4668
lhand -18.4742 -10.4118
lfingers 7.12502
lthumb 7.81262 19.4239
rfemur -21.1827 3.7163 18.457
rtibia 74.4949
rfoot 2.64122 -0.864449
rtoes -21.6499
lfemur -23.9448 2.33531 -26.0767
ltibia 32.0368
lfoot -12.457 -1.44375
ltoes 1.75078
176
root 7.71236 16.2561 -1.46835 5.30751 -8.45659 1.81343
lowerback 0.098815 3.37048 -2.02735
upperback -2.56209 4.43292 -1.44364
thorax -2.7258 2.24099 -0.46193
lowerneck -11.5785 -0.483759 -1.91222
upperneck 16.5593 -0.370042 0.415368
head 6.97543 -0.259959 0.415615
rclavicle -8.83039e-015 -1.98785e-016
rhumerus -32.318 -2.44637 -87.6368
rradius 43.8277
rwrist -19.7393
rhand -17.5147 -40.1151
rfingers 7.12502
rthumb 8.73867 -69.9142
lclavicle -8.83039e-015 -1.98785e-016
lhumerus -45.6598 28.1047 64.0482
lradius 11.9413
lwrist -20.3828
lhand -20.2222 -12.9281
lfingers 7.12502
lthumb 6.12532 16.9633
rfemur -22.8673 3.53883 19.1138
rtibia 74.6608
rfoot 1.15287 -1.08322
rtoes -19.9629
lfemur -23.1022 1.77841 -25.7361
ltibia 31.779
lfoot -13.0471 -1.36879
ltoes 0.494858
177
root 7.71813 16.2641 -1.2567 5.11339 -8.11566 2.16977
lowerback 0.111742 3.26851 -2.34186
upperback -2.54054 4.29131 -1.45506
thorax -2.73241 2.17699 -0.296118
lowerneck -11.6181 -0.53428 -1.79536
upperneck 17.0323 -0.40337 0.111321
head 7.1354 -0.29797 0.294923
rclavicle -3.41987e-014 -6.75868e-015
rhumerus -33.5538 -3.41075 -87.441
rradius 42.098
rwrist -19.4071
rhand -17.2035 -37.8016
rfingers 7.12502
rthumb 9.039 -67.5879
lclavicle -3.41987e-014 -6.75868e-015
lhumerus -43.0894 26.485 66.9874
lradius 11.93
lwrist -18.6247
lhand -20.5734 -12.3575
lfingers 7.12502
lthumb 5.78627 17.5435
rfemur -24.2197 3.14496 18.903
rtibia 74.6312
rfoot -0.189966 -1.01155
rtoes -20.1129
lfemur -21.8575 1.44615 -26.2376
ltibia 31.3649
lfoot -13.6891 -1.5245
ltoes -0.577577
